<?xml version="1.0" encoding="UTF-8" standalone="no"?>
<svg
   xmlns:dc="http://purl.org/dc/elements/1.1/"
   xmlns:cc="http://creativecommons.org/ns#"
   xmlns:rdf="http://www.w3.org/1999/02/22-rdf-syntax-ns#"
   xmlns:svg="http://www.w3.org/2000/svg"
   xmlns="http://www.w3.org/2000/svg"
   xmlns:sodipodi="http://sodipodi.sourceforge.net/DTD/sodipodi-0.dtd"
   xmlns:inkscape="http://www.inkscape.org/namespaces/inkscape"
   sodipodi:docname="exotic.svg"
   width="165.65538mm"
   height="88.734734mm"
   viewBox="0 0 165.65538 88.734733"
   version="1.1"
   id="svg4652"
   inkscape:version="1.0 (4035a4fb49, 2020-05-01)">
  <defs
     id="defs4646" />
  <sodipodi:namedview
     id="base"
     pagecolor="#ffffff"
     bordercolor="#666666"
     borderopacity="1.0"
     inkscape:pageopacity="0.0"
     inkscape:pageshadow="2"
     inkscape:zoom="1.979899"
     inkscape:cx="464.78369"
     inkscape:cy="164.63234"
     inkscape:document-units="mm"
     inkscape:current-layer="layer1"
     inkscape:document-rotation="0"
     showgrid="false"
     inkscape:window-width="1920"
     inkscape:window-height="1020"
     inkscape:window-x="0"
     inkscape:window-y="0"
     inkscape:window-maximized="1" />
  <metadata
     id="metadata4649">
    <rdf:RDF>
      <cc:Work
         rdf:about="">
        <dc:format>image/svg+xml</dc:format>
        <dc:type
           rdf:resource="http://purl.org/dc/dcmitype/StillImage" />
        <dc:title></dc:title>
      </cc:Work>
    </rdf:RDF>
  </metadata>
  <g
     transform="translate(12.828199,-8.3090883)"
     inkscape:label="Layer 1"
     inkscape:groupmode="layer"
     id="layer1">
    <circle
       r="28.878904"
       cy="51.418709"
       cx="16.252975"
       id="path830-9"
       style="fill:#000000;fill-opacity:0;stroke:#000000;stroke-width:0.40454;stroke-miterlimit:4;stroke-dasharray:none;stroke-dashoffset:0" />
    <path
       style="fill:none;stroke:#000000;stroke-width:0.264583px;stroke-linecap:butt;stroke-linejoin:miter;stroke-opacity:1"
       d="m 13.334561,89.594762 13.297182,-75.662853 9.55071,39.142463 z"
       id="path1247" />
    <path
       style="fill:none;stroke:#000000;stroke-width:0.264583;stroke-linecap:butt;stroke-linejoin:miter;stroke-miterlimit:4;stroke-dasharray:0.264583, 0.264583;stroke-dashoffset:0;stroke-opacity:1"
       d="m 25.024704,22.820271 c 2.08579,0.629071 4.304001,1.953371 4.304001,1.953371"
       id="path1341" />
    <path
       id="path1341-7"
       d="m 24.593965,25.080852 c 2.5669,0.70562 5.29677,2.19108 5.29677,2.19108"
       style="fill:none;stroke:#000000;stroke-width:0.310864;stroke-linecap:butt;stroke-linejoin:miter;stroke-miterlimit:4;stroke-dasharray:0.310864, 0.310864;stroke-dashoffset:0;stroke-opacity:1" />
    <path
       style="fill:none;stroke:#000000;stroke-width:0.202112;stroke-linecap:butt;stroke-linejoin:miter;stroke-miterlimit:4;stroke-dasharray:0.202112, 0.202112;stroke-dashoffset:0;stroke-opacity:1"
       d="m 15.136833,79.384073 c 2.522988,-0.0395 4.819589,-0.306501 4.819589,-0.306501"
       id="path1379" />
    <path
       id="path1379-6"
       d="m 14.674852,81.397354 c 2.200736,-0.0492 4.204002,-0.381701 4.204002,-0.381701"
       style="fill:none;stroke:#000000;stroke-width:0.210651;stroke-linecap:butt;stroke-linejoin:miter;stroke-miterlimit:4;stroke-dasharray:0.210651, 0.210651;stroke-dashoffset:0;stroke-opacity:1" />
    <path
       d="M 75.970503,51.578576 A 10.472846,10.472846 0 0 1 79.976077,65.828513 10.472846,10.472846 0 0 1 65.730818,69.850694 10.472846,10.472846 0 0 1 61.692036,55.610134 10.472846,10.472846 0 0 1 75.92788,51.554756"
       sodipodi:arc-type="arc"
       sodipodi:open="true"
       sodipodi:end="5.2196846"
       sodipodi:start="5.2243469"
       sodipodi:ry="10.472846"
       sodipodi:rx="10.472846"
       sodipodi:cy="60.708668"
       sodipodi:cx="70.840012"
       sodipodi:type="arc"
       id="path2020"
       style="fill:#000000;fill-opacity:0;stroke:#000000;stroke-width:0.2;stroke-miterlimit:4;stroke-dasharray:none;stroke-dashoffset:0" />
    <path
       id="path2024"
       d="M 54.868725,8.3682502 59.636244,96.56663 80.02998,58.691497 Z"
       style="fill:none;stroke:#000000;stroke-width:0.264583px;stroke-linecap:butt;stroke-linejoin:miter;stroke-opacity:1" />
    <path
       sodipodi:open="true"
       d="m 73.843905,70.001612 a 9.7854834,9.7854834 0 0 1 -11.58736,-4.709663 9.7854834,9.7854834 0 0 1 2.508541,-12.253777 9.7854834,9.7854834 0 0 1 12.50593,0.222612"
       sodipodi:arc-type="arc"
       sodipodi:end="5.4235222"
       sodipodi:start="1.2635146"
       sodipodi:ry="9.7854834"
       sodipodi:rx="9.7854834"
       sodipodi:cy="60.674488"
       sodipodi:cx="70.884102"
       sodipodi:type="arc"
       id="path2026"
       style="fill:#000000;fill-opacity:0;stroke:#000000;stroke-width:0.2;stroke-miterlimit:4;stroke-dasharray:0.2, 0.2;stroke-dashoffset:0" />
    <path
       d="m 73.026369,72.020487 a 11.424207,11.424207 0 0 1 -12.169635,-5.804352 11.424207,11.424207 0 0 1 1.836364,-13.35733 11.424207,11.424207 0 0 1 13.284497,-2.30492"
       sodipodi:arc-type="arc"
       sodipodi:open="true"
       sodipodi:end="5.1717841"
       sodipodi:start="1.3846481"
       sodipodi:ry="11.424207"
       sodipodi:rx="11.424207"
       sodipodi:cy="60.79364"
       sodipodi:cx="70.912033"
       sodipodi:type="arc"
       id="path2043"
       style="fill:#000000;fill-opacity:0;stroke:#000000;stroke-width:0.2;stroke-miterlimit:4;stroke-dasharray:0.2, 0.2;stroke-dashoffset:0" />
    <path
       id="path2081"
       d="m 59.458157,60.907352 -1.732423,0.163846"
       style="fill:none;stroke:#000000;stroke-width:0.264583;stroke-linecap:butt;stroke-linejoin:miter;stroke-miterlimit:4;stroke-dasharray:0.264583, 0.264583;stroke-dashoffset:0;stroke-opacity:1" />
    <path
       id="path962-5-1"
       d="m 17.957857,79.983781 -0.867355,-0.768377 0.729965,-0.823993"
       style="fill:none;stroke:#000000;stroke-width:0.264583px;stroke-linecap:butt;stroke-linejoin:miter;stroke-opacity:1" />
    <path
       id="path962-5-11"
       d="m 15.990639,80.503893 0.884299,0.748815 -0.71138,0.840089"
       style="fill:none;stroke:#000000;stroke-width:0.264583px;stroke-linecap:butt;stroke-linejoin:miter;stroke-opacity:1" />
    <path
       id="path962-5-7"
       d="m 13.222481,84.517793 1.053151,-0.483304 0.459141,1.000501"
       style="fill:none;stroke:#000000;stroke-width:0.264583px;stroke-linecap:butt;stroke-linejoin:miter;stroke-opacity:1" />
    <path
       id="path962-5-0"
       d="m 16.970291,85.065284 -1.078159,0.424593 -0.403366,-1.02426"
       style="fill:none;stroke:#000000;stroke-width:0.264583px;stroke-linecap:butt;stroke-linejoin:miter;stroke-opacity:1" />
    <path
       id="path962-5-4"
       d="m 19.494668,49.928828 0.966292,-0.639522 0.607549,0.917985"
       style="fill:none;stroke:#000000;stroke-width:0.264583px;stroke-linecap:butt;stroke-linejoin:miter;stroke-opacity:1" />
    <path
       id="path962-5"
       d="m 26.729948,25.0067 0.570141,1.008785 -0.958354,0.541637"
       style="fill:none;stroke:#000000;stroke-width:0.264583px;stroke-linecap:butt;stroke-linejoin:miter;stroke-opacity:1" />
    <path
       id="path962-5-08"
       d="M 27.177245,24.369705 26.607104,23.36092 27.565458,22.819283"
       style="fill:none;stroke:#000000;stroke-width:0.264583px;stroke-linecap:butt;stroke-linejoin:miter;stroke-opacity:1" />
    <path
       id="path962-5-5"
       d="m 24.791041,19.222918 1.015347,-0.558372 0.530455,0.964589"
       style="fill:none;stroke:#000000;stroke-width:0.264583px;stroke-linecap:butt;stroke-linejoin:miter;stroke-opacity:1" />
    <path
       id="path962-5-16"
       d="M 28.502606,18.741751 28.022844,19.79652 27.020806,19.34074"
       style="fill:none;stroke:#000000;stroke-width:0.264583px;stroke-linecap:butt;stroke-linejoin:miter;stroke-opacity:1" />
    <path
       id="path962-5-6"
       d="m 33.55337,39.676286 -0.432412,1.075048 -1.021303,-0.410796"
       style="fill:none;stroke:#000000;stroke-width:0.264583px;stroke-linecap:butt;stroke-linejoin:miter;stroke-opacity:1" />
    <path
       id="path962-5-2"
       d="m 32.56619,60.344969 -1.157092,0.06202 -0.05891,-1.099246"
       style="fill:none;stroke:#000000;stroke-width:0.264583px;stroke-linecap:butt;stroke-linejoin:miter;stroke-opacity:1" />
    <path
       style="fill:#000000;fill-opacity:1;stroke:#000000;stroke-width:0.2;stroke-miterlimit:4;stroke-dasharray:none;stroke-dashoffset:0"
       id="path1275"
       sodipodi:type="arc"
       sodipodi:cx="27.02837"
       sodipodi:cy="20.960543"
       sodipodi:rx="0.16554913"
       sodipodi:ry="0.16554913"
       sodipodi:start="5.2367089"
       sodipodi:end="5.2359878"
       sodipodi:open="true"
       sodipodi:arc-type="arc"
       d="m 27.111248,20.817233 a 0.16554913,0.16554913 0 0 1 0.06045,0.226162 0.16554913,0.16554913 0 0 1 -0.226151,0.06049 0.16554913,0.16554913 0 0 1 -0.06053,-0.226141 0.16554913,0.16554913 0 0 1 0.226129,-0.06057" />
    <path
       style="fill:#000000;fill-opacity:1;stroke:#000000;stroke-width:0.2;stroke-miterlimit:4;stroke-dasharray:none;stroke-dashoffset:0"
       id="path1275-2"
       sodipodi:type="arc"
       sodipodi:cx="15.836262"
       sodipodi:cy="83.313812"
       sodipodi:rx="0.16554913"
       sodipodi:ry="0.16554913"
       sodipodi:start="5.2367089"
       sodipodi:end="5.2359878"
       sodipodi:open="true"
       sodipodi:arc-type="arc"
       d="m 15.91914,83.170502 a 0.16554913,0.16554913 0 0 1 0.06045,0.226162 0.16554913,0.16554913 0 0 1 -0.226152,0.06049 0.16554913,0.16554913 0 0 1 -0.06053,-0.22614 0.16554913,0.16554913 0 0 1 0.226129,-0.06057" />
    <text
       id="text2196"
       y="85.325317"
       x="16.012701"
       style="font-size:3.175px;line-height:1.25;font-family:sans-serif;-inkscape-font-specification:'sans-serif, Normal';stroke-width:0.264583"
       xml:space="preserve"><tspan
         style="stroke-width:0.264583"
         y="85.325317"
         x="16.012701"
         id="tspan2194"
         sodipodi:role="line">$p_1$</tspan></text>
    <text
       id="text2200"
       y="22.762783"
       x="29.028975"
       style="font-size:3.175px;line-height:1.25;font-family:sans-serif;-inkscape-font-specification:'sans-serif, Normal';stroke-width:0.264583"
       xml:space="preserve"><tspan
         style="stroke-width:0.264583"
         y="22.762783"
         x="29.028975"
         id="tspan2198"
         sodipodi:role="line">$p_2$</tspan></text>
    <path
       style="fill:#000000;fill-opacity:1;stroke:#000000;stroke-width:0.2;stroke-miterlimit:4;stroke-dasharray:none;stroke-dashoffset:0"
       id="path1275-29"
       sodipodi:type="arc"
       sodipodi:cx="62.544937"
       sodipodi:cy="78.667793"
       sodipodi:rx="0.16554913"
       sodipodi:ry="0.16554913"
       sodipodi:start="5.2367089"
       sodipodi:end="5.2359878"
       sodipodi:open="true"
       sodipodi:arc-type="arc"
       d="m 62.627815,78.524483 a 0.16554913,0.16554913 0 0 1 0.06045,0.226162 0.16554913,0.16554913 0 0 1 -0.226151,0.06049 0.16554913,0.16554913 0 0 1 -0.06053,-0.22614 0.16554913,0.16554913 0 0 1 0.22613,-0.06057" />
    <path
       style="fill:#000000;fill-opacity:1;stroke:#000000;stroke-width:0.2;stroke-miterlimit:4;stroke-dasharray:none;stroke-dashoffset:0"
       id="path1275-7"
       sodipodi:type="arc"
       sodipodi:cx="62.611755"
       sodipodi:cy="39.512806"
       sodipodi:rx="0.16554913"
       sodipodi:ry="0.16554913"
       sodipodi:start="5.2367089"
       sodipodi:end="5.2359878"
       sodipodi:open="true"
       sodipodi:arc-type="arc"
       d="m 62.694633,39.369496 a 0.16554913,0.16554913 0 0 1 0.06045,0.226162 0.16554913,0.16554913 0 0 1 -0.226151,0.06049 0.16554913,0.16554913 0 0 1 -0.06053,-0.22614 0.16554913,0.16554913 0 0 1 0.226129,-0.06057" />
    <text
       id="text2216"
       y="43.601978"
       x="62.988647"
       style="font-size:3.175px;line-height:1.25;font-family:sans-serif;-inkscape-font-specification:'sans-serif, Normal';stroke-width:0.264583"
       xml:space="preserve"><tspan
         style="stroke-width:0.264583"
         y="43.601978"
         x="62.988647"
         id="tspan2214"
         sodipodi:role="line">$p_1$</tspan></text>
    <text
       id="text2220"
       y="83.961761"
       x="61.584175"
       style="font-size:3.175px;line-height:1.25;font-family:sans-serif;-inkscape-font-specification:'sans-serif, Normal';stroke-width:0.264583"
       xml:space="preserve"><tspan
         style="stroke-width:0.264583"
         y="83.961761"
         x="61.584175"
         id="tspan2218"
         sodipodi:role="line">$p_2$</tspan></text>
    <path
       style="fill:none;stroke:#000000;stroke-width:0.264583px;stroke-linecap:butt;stroke-linejoin:miter;stroke-opacity:1"
       d="M 57.943983,49.015148 57.09946,49.808551 56.345722,49.006247"
       id="path962-5-6-5" />
    <path
       id="path962-5-6-5-6"
       d="m 59.176757,71.321382 -0.844523,0.793403 -0.753738,-0.802304"
       style="fill:none;stroke:#000000;stroke-width:0.264583px;stroke-linecap:butt;stroke-linejoin:miter;stroke-opacity:1" />
    <path
       style="fill:none;stroke:#000000;stroke-width:0.264583px;stroke-linecap:butt;stroke-linejoin:miter;stroke-opacity:1"
       d="m 68.232922,78.949478 1.134015,-0.238152 0.226245,1.077324"
       id="path962-5-6-5-6-4" />
    <path
       style="fill:none;stroke:#000000;stroke-width:0.264583px;stroke-linecap:butt;stroke-linejoin:miter;stroke-opacity:1"
       d="m 62.333392,69.604701 0.08635,-1.155531 1.097763,0.08203"
       id="path962-5-6-5-6-6" />
    <path
       style="fill:none;stroke:#000000;stroke-width:0.264583px;stroke-linecap:butt;stroke-linejoin:miter;stroke-opacity:1"
       d="m 58.990955,61.696269 -0.816686,-0.82203 0.780935,-0.775856"
       id="path962-5-6-5-6-3" />
    <path
       id="path962-5-6-5-6-3-9"
       d="m 58.096922,60.135688 0.816686,0.82203 -0.780935,0.775856"
       style="fill:none;stroke:#000000;stroke-width:0.264583px;stroke-linecap:butt;stroke-linejoin:miter;stroke-opacity:1" />
    <path
       id="path962-5-6-5-6-3-7"
       d="m 60.898111,53.302307 1.15118,0.132265 -0.125654,1.093628"
       style="fill:none;stroke:#000000;stroke-width:0.264583px;stroke-linecap:butt;stroke-linejoin:miter;stroke-opacity:1" />
    <path
       style="fill:none;stroke:#000000;stroke-width:0.264583px;stroke-linecap:butt;stroke-linejoin:miter;stroke-opacity:1"
       d="m 61.969045,60.52073 -0.822156,0.816559 -0.775735,-0.781055"
       id="path962-5-6-5-6-3-7-4" />
    <path
       style="fill:none;stroke:#000000;stroke-width:0.264583px;stroke-linecap:butt;stroke-linejoin:miter;stroke-opacity:1"
       d="m 68.431545,37.002247 0.172644,-1.14582 1.088536,0.164015"
       id="path962-5-6-5-6-3-7-9" />
    <path
       style="fill:none;stroke:#000000;stroke-width:0.264583px;stroke-linecap:butt;stroke-linejoin:miter;stroke-opacity:1"
       d="m 75.738689,65.026147 1.127588,-0.266935 0.253589,1.071216"
       id="path962-5-6-5-6-3-7-1" />
    <path
       style="fill:none;stroke:#000000;stroke-width:0.264583px;stroke-linecap:butt;stroke-linejoin:miter;stroke-opacity:1"
       d="m 77.893465,56.114439 0.21637,-1.138373 1.081462,0.205554"
       id="path962-5-6-5-6-3-7-7" />
    <circle
       style="fill:#000000;fill-opacity:0;stroke:#000000;stroke-width:0.40454;stroke-miterlimit:4;stroke-dasharray:none;stroke-dashoffset:0"
       id="path830-9-5"
       cx="123.74601"
       cy="51.046631"
       r="28.878904" />
    <path
       id="path2356"
       d="m 104.99224,35.622781 v 24.72139 L 82.718916,47.484651 Z"
       style="fill:none;stroke:#000000;stroke-width:0.264583px;stroke-linecap:butt;stroke-linejoin:miter;stroke-opacity:1" />
    <path
       sodipodi:open="true"
       d="M 97.146681,55.868318 A 27.062346,27.062346 0 0 1 99.916583,38.157005"
       sodipodi:arc-type="arc"
       sodipodi:end="3.6343126"
       sodipodi:start="2.9591428"
       sodipodi:ry="27.062346"
       sodipodi:rx="27.062346"
       sodipodi:cy="50.958145"
       sodipodi:cx="123.75985"
       sodipodi:type="arc"
       id="path2358"
       style="fill:#000000;fill-opacity:0;stroke:#000000;stroke-width:0.264583;stroke-miterlimit:4;stroke-dasharray:0.264583, 0.264583;stroke-dashoffset:0" />
    <path
       d="M 93.07635,53.729748 A 30.901733,30.901733 0 0 1 94.697347,40.719316"
       sodipodi:arc-type="arc"
       sodipodi:open="true"
       sodipodi:end="3.4793109"
       sodipodi:start="3.0517811"
       sodipodi:ry="30.901733"
       sodipodi:rx="30.901733"
       sodipodi:cy="50.958145"
       sodipodi:cx="123.85354"
       sodipodi:type="arc"
       id="path2360"
       style="fill:#000000;fill-opacity:0;stroke:#000000;stroke-width:0.264583;stroke-miterlimit:4;stroke-dasharray:0.264583, 0.264583;stroke-dashoffset:0" />
    <path
       d="m 88.88253,48.113617 a 0.16554913,0.16554913 0 0 1 0.06045,0.226163 0.16554913,0.16554913 0 0 1 -0.226151,0.06049 0.16554913,0.16554913 0 0 1 -0.06053,-0.22614 0.16554913,0.16554913 0 0 1 0.22613,-0.06057"
       sodipodi:arc-type="arc"
       sodipodi:open="true"
       sodipodi:end="5.2359878"
       sodipodi:start="5.2367089"
       sodipodi:ry="0.16554913"
       sodipodi:rx="0.16554913"
       sodipodi:cy="48.256927"
       sodipodi:cx="88.799652"
       sodipodi:type="arc"
       id="path1275-2-2"
       style="fill:#000000;fill-opacity:1;stroke:#000000;stroke-width:0.2;stroke-miterlimit:4;stroke-dasharray:none;stroke-dashoffset:0" />
    <text
       id="text2379"
       y="46.956795"
       x="88.425583"
       style="font-size:3.175px;line-height:1.25;font-family:sans-serif;-inkscape-font-specification:'sans-serif, Normal';stroke-width:0.264583"
       xml:space="preserve"><tspan
         style="stroke-width:0.264583"
         y="46.956795"
         x="88.425583"
         id="tspan2377"
         sodipodi:role="line">$p$</tspan></text>
    <path
       style="fill:none;stroke:#000000;stroke-width:0.264583px;stroke-linecap:butt;stroke-linejoin:miter;stroke-opacity:1"
       d="m 93.883103,48.113251 -0.91648,0.70908 -0.67362,-0.87066"
       id="path962-5-1-3" />
    <path
       id="path962-5-1-3-6"
       d="m 96.212163,46.962751 0.91648,-0.70908 0.67362,0.87066"
       style="fill:none;stroke:#000000;stroke-width:0.264583px;stroke-linecap:butt;stroke-linejoin:miter;stroke-opacity:1" />
    <path
       id="path962-5-1-3-3"
       d="m 91.462153,43.691151 -1.12536,-0.2762 0.26239,-1.06909"
       style="fill:none;stroke:#000000;stroke-width:0.264583px;stroke-linecap:butt;stroke-linejoin:miter;stroke-opacity:1" />
    <path
       style="fill:none;stroke:#000000;stroke-width:0.264583px;stroke-linecap:butt;stroke-linejoin:miter;stroke-opacity:1"
       d="m 102.52364,37.939831 -1.12536,-0.2762 0.26239,-1.06909"
       id="path962-5-1-3-3-3" />
    <path
       style="fill:none;stroke:#000000;stroke-width:0.264583px;stroke-linecap:butt;stroke-linejoin:miter;stroke-opacity:1"
       d="m 88.820263,50.048082 0.16866,1.14642 -1.0891,0.16022"
       id="path962-5-1-3-3-4" />
    <path
       id="path962-5-1-3-3-4-4"
       d="m 100.40311,56.584921 0.16865,1.14642 -1.089097,0.16022"
       style="fill:none;stroke:#000000;stroke-width:0.264583px;stroke-linecap:butt;stroke-linejoin:miter;stroke-opacity:1" />
    <path
       id="path962-5-1-3-3-4-3"
       d="m 104.17639,48.785641 0.85069,-0.7868 0.74746,0.80815"
       style="fill:none;stroke:#000000;stroke-width:0.264583px;stroke-linecap:butt;stroke-linejoin:miter;stroke-opacity:1" />
  </g>
</svg>
