<?xml version="1.0" encoding="UTF-8" standalone="no"?>
<svg
   xmlns:dc="http://purl.org/dc/elements/1.1/"
   xmlns:cc="http://creativecommons.org/ns#"
   xmlns:rdf="http://www.w3.org/1999/02/22-rdf-syntax-ns#"
   xmlns:svg="http://www.w3.org/2000/svg"
   xmlns="http://www.w3.org/2000/svg"
   xmlns:sodipodi="http://sodipodi.sourceforge.net/DTD/sodipodi-0.dtd"
   xmlns:inkscape="http://www.inkscape.org/namespaces/inkscape"
   sodipodi:docname="homo.svg"
   width="64.402069mm"
   height="63.753124mm"
   viewBox="0 0 64.402069 63.753124"
   version="1.1"
   id="svg4652"
   inkscape:version="1.0 (4035a4fb49, 2020-05-01)">
  <defs
     id="defs4646" />
  <sodipodi:namedview
     id="base"
     pagecolor="#ffffff"
     bordercolor="#666666"
     borderopacity="1.0"
     inkscape:pageopacity="0.0"
     inkscape:pageshadow="2"
     inkscape:zoom="1.979899"
     inkscape:cx="169.39002"
     inkscape:cy="81.790998"
     inkscape:document-units="mm"
     inkscape:current-layer="layer1"
     inkscape:document-rotation="0"
     showgrid="false"
     inkscape:window-width="1920"
     inkscape:window-height="1020"
     inkscape:window-x="0"
     inkscape:window-y="0"
     inkscape:window-maximized="1" />
  <metadata
     id="metadata4649">
    <rdf:RDF>
      <cc:Work
         rdf:about="">
        <dc:format>image/svg+xml</dc:format>
        <dc:type
           rdf:resource="http://purl.org/dc/dcmitype/StillImage" />
        <dc:title></dc:title>
      </cc:Work>
    </rdf:RDF>
  </metadata>
  <g
     transform="translate(-20.479527,-17.646106)"
     inkscape:label="Layer 1"
     inkscape:groupmode="layer"
     id="layer1">
    <path
       id="path830"
       d="M 20.479527,56.677842 H 83.968568"
       style="fill:none;stroke:#000000;stroke-width:0.264583px;stroke-linecap:butt;stroke-linejoin:miter;stroke-opacity:1" />
    <path
       id="path841"
       d="M 52.317488,57.052125 V 28.58531 80.650145"
       style="fill:none;stroke:#000000;stroke-width:0.264583px;stroke-linecap:butt;stroke-linejoin:miter;stroke-opacity:1" />
    <path
       id="path843"
       d="M 30.732994,56.771413 V 81.118519"
       style="fill:none;stroke:#000000;stroke-width:0.264583px;stroke-linecap:butt;stroke-linejoin:miter;stroke-opacity:1" />
    <path
       style="fill:none;stroke:#000000;stroke-width:0.264583px;stroke-linecap:butt;stroke-linejoin:miter;stroke-opacity:1"
       d="M 41.105871,56.757581 V 81.104687"
       id="path843-4" />
    <path
       style="fill:none;stroke:#000000;stroke-width:0.264583px;stroke-linecap:butt;stroke-linejoin:miter;stroke-opacity:1"
       d="M 61.926532,56.58597 V 80.933076"
       id="path843-44" />
    <path
       style="fill:none;stroke:#000000;stroke-width:0.264583px;stroke-linecap:butt;stroke-linejoin:miter;stroke-opacity:1"
       d="M 74.05715,56.598628 V 80.945734"
       id="path843-7" />
    <path
       style="fill:none;stroke:#000000;stroke-width:0.264583px;stroke-linecap:butt;stroke-linejoin:miter;stroke-opacity:1"
       d="M 52.317488,57.052125 V 81.399231"
       id="path843-6" />
    <path
       d="m 35.908608,73.621342 a 0.24292274,0.24292274 0 0 1 0.216478,-0.266754 0.24292274,0.24292274 0 0 1 0.266758,0.216473 0.24292274,0.24292274 0 0 1 -0.216466,0.266763 0.24292274,0.24292274 0 0 1 -0.266768,-0.216461"
       sodipodi:arc-type="arc"
       sodipodi:open="true"
       sodipodi:end="3.0378503"
       sodipodi:start="3.0379375"
       sodipodi:ry="0.24292274"
       sodipodi:rx="0.24292274"
       sodipodi:cy="73.596207"
       sodipodi:cx="36.150227"
       sodipodi:type="arc"
       id="path878"
       style="fill:#000000;stroke:#000000;stroke-width:0.0833281;stroke-miterlimit:4;stroke-dasharray:none;stroke-dashoffset:0" />
    <path
       style="fill:#000000;stroke:#000000;stroke-width:0.0833281;stroke-miterlimit:4;stroke-dasharray:none;stroke-dashoffset:0"
       id="path878-3"
       sodipodi:type="arc"
       sodipodi:cx="79.658485"
       sodipodi:cy="71.909973"
       sodipodi:rx="0.24292274"
       sodipodi:ry="0.24292274"
       sodipodi:start="3.0379375"
       sodipodi:end="3.0378503"
       sodipodi:open="true"
       sodipodi:arc-type="arc"
       d="m 79.416867,71.935108 a 0.24292274,0.24292274 0 0 1 0.216478,-0.266753 0.24292274,0.24292274 0 0 1 0.266758,0.216472 0.24292274,0.24292274 0 0 1 -0.216467,0.266763 0.24292274,0.24292274 0 0 1 -0.266767,-0.216461" />
    <path
       id="path895"
       d="m 35.908609,73.621362 c 0.427305,4.500483 2.149237,10.062345 2.811066,3.043576 0.661826,-7.018766 -6.224426,-6.091912 -4.105693,-11.256602 2.118733,-5.164691 0.661458,-14.434704 -2.251618,-17.613172 -2.913073,-3.178472 21.983526,-3.046328 28.472609,1.324022 6.489083,4.370351 18.937936,4.237837 19.467248,0.662197 0.529315,-3.57564 6.489083,5.561861 3.708154,10.72692 -2.78093,5.16506 -7.589581,8.702622 -6.091545,10.064723 1.498037,1.362101 1.498037,1.36208 1.498037,1.36208"
       style="fill:none;stroke:#0200d9;stroke-width:0.264583px;stroke-linecap:butt;stroke-linejoin:miter;stroke-opacity:1" />
    <path
       id="path906"
       d="m 35.908609,73.621362 c -1.823942,4.500483 -6.726412,5.755111 -0.764574,6.619216 5.961835,0.864108 -2.65e-4,-10.594406 1.58905,-14.832242 1.589419,-4.237837 -8.607819,-12.977797 -5.694375,-14.567218 2.913443,-1.589418 27.015331,8.872845 22.645351,1.589051 -4.36998,-7.283792 -2.913444,-12.050943 8.343159,-10.859064 11.256605,1.191879 2.648786,6.620859 3.973182,11.256235 1.324393,4.635376 -2.65e-4,-3.442758 7.680592,-4.634637 7.680965,-1.191882 3.269855,12.013996 4.502864,17.8782 1.233009,5.864203 1.233009,5.864224 1.233009,5.864224"
       style="fill:none;fill-opacity:1;stroke:#ff0303;stroke-width:0.265;stroke-linecap:butt;stroke-linejoin:miter;stroke-miterlimit:4;stroke-dasharray:none;stroke-opacity:1" />
    <path
       d="m 79.185108,48.391449 a 0.24292274,0.24292274 0 0 1 0.216479,-0.266753 0.24292274,0.24292274 0 0 1 0.266758,0.216472 0.24292274,0.24292274 0 0 1 -0.216467,0.266763 0.24292274,0.24292274 0 0 1 -0.266767,-0.216461"
       sodipodi:arc-type="arc"
       sodipodi:open="true"
       sodipodi:end="3.0378503"
       sodipodi:start="3.0379375"
       sodipodi:ry="0.24292274"
       sodipodi:rx="0.24292274"
       sodipodi:cy="48.366314"
       sodipodi:cx="79.426727"
       sodipodi:type="arc"
       id="path878-3-8"
       style="fill:#000000;stroke:#000000;stroke-width:0.0833281;stroke-miterlimit:4;stroke-dasharray:none;stroke-dashoffset:0" />
    <path
       style="fill:none;stroke:#0200d9;stroke-width:0.264583px;stroke-linecap:butt;stroke-linejoin:miter;stroke-opacity:1"
       d="m 35.90861,50.011471 c 0.427305,4.500483 2.149236,10.062345 2.811065,3.043576 0.661827,-7.018766 -6.224426,-6.091912 -4.105693,-11.256602 2.118733,-5.164692 0.661458,-14.434705 -2.251618,-17.613173 -2.913073,-3.178472 21.983527,-3.046328 28.472611,1.324023 6.489083,4.370351 18.937935,4.237836 19.467247,0.662196 0.529315,-3.57564 6.489084,5.561862 3.708154,10.726921 -2.780929,5.16506 -7.58958,8.702622 -6.091544,10.064723 1.498036,1.362102 1.498036,1.362081 1.498036,1.362081"
       id="path895-3" />
    <path
       style="fill:none;fill-opacity:1;stroke:#ff0303;stroke-width:0.264999;stroke-linecap:butt;stroke-linejoin:miter;stroke-miterlimit:4;stroke-dasharray:none;stroke-opacity:1"
       d="m 35.90861,50.011471 c -1.823943,4.500483 -6.726413,5.755111 -0.764575,6.619216 5.961836,0.864108 -2.64e-4,-10.594406 1.58905,-14.832242 1.589419,-4.237837 -8.607819,-12.977797 -5.694375,-14.567219 2.913443,-1.589418 27.015332,8.872846 22.645352,1.589051 -4.36998,-7.283792 -2.913444,-12.050943 8.343159,-10.859064 11.256606,1.191879 2.648787,6.620859 3.973182,11.256236 1.324393,4.635375 -2.64e-4,-3.442759 7.680592,-4.634638 7.680966,-1.191881 3.269856,12.013997 4.502865,17.878201 1.233008,5.864204 1.233008,5.864225 1.233008,5.864225"
       id="path906-1" />
    <path
       id="path932"
       d="M 79.416867,71.935127 V 48.325214"
       style="fill:none;stroke:#000000;stroke-width:0.264583px;stroke-linecap:butt;stroke-linejoin:miter;stroke-opacity:1" />
    <path
       id="path934"
       d="M 35.908609,73.621362 V 50.444317"
       style="fill:none;stroke:#000000;stroke-width:0.264583px;stroke-linecap:butt;stroke-linejoin:miter;stroke-opacity:1" />
    <path
       style="fill:#000000;stroke:#000000;stroke-width:0.0833281;stroke-miterlimit:4;stroke-dasharray:none;stroke-dashoffset:0"
       id="path878-38"
       sodipodi:type="arc"
       sodipodi:cx="35.906055"
       sodipodi:cy="50.176689"
       sodipodi:rx="0.24292274"
       sodipodi:ry="0.24292274"
       sodipodi:start="3.0379375"
       sodipodi:end="3.0378503"
       sodipodi:open="true"
       sodipodi:arc-type="arc"
       d="m 35.664437,50.201824 a 0.24292274,0.24292274 0 0 1 0.216478,-0.266753 0.24292274,0.24292274 0 0 1 0.266758,0.216472 0.24292274,0.24292274 0 0 1 -0.216467,0.266763 0.24292274,0.24292274 0 0 1 -0.266767,-0.216461" />
  </g>
</svg>
