<?xml version="1.0" encoding="UTF-8" standalone="no"?>
<svg
   xmlns:dc="http://purl.org/dc/elements/1.1/"
   xmlns:cc="http://creativecommons.org/ns#"
   xmlns:rdf="http://www.w3.org/1999/02/22-rdf-syntax-ns#"
   xmlns:svg="http://www.w3.org/2000/svg"
   xmlns="http://www.w3.org/2000/svg"
   xmlns:sodipodi="http://sodipodi.sourceforge.net/DTD/sodipodi-0.dtd"
   xmlns:inkscape="http://www.inkscape.org/namespaces/inkscape"
   sodipodi:docname="3g.svg"
   width="80.517784mm"
   height="77.868996mm"
   viewBox="0 0 80.517784 77.868996"
   version="1.1"
   id="svg4652"
   inkscape:version="1.0 (4035a4fb49, 2020-05-01)">
  <defs
     id="defs4646" />
  <sodipodi:namedview
     id="base"
     pagecolor="#ffffff"
     bordercolor="#666666"
     borderopacity="1.0"
     inkscape:pageopacity="0.0"
     inkscape:pageshadow="2"
     inkscape:zoom="1.979899"
     inkscape:cx="-23.922708"
     inkscape:cy="144.02591"
     inkscape:document-units="mm"
     inkscape:current-layer="layer1"
     inkscape:document-rotation="0"
     showgrid="false"
     inkscape:window-width="1920"
     inkscape:window-height="1020"
     inkscape:window-x="0"
     inkscape:window-y="0"
     inkscape:window-maximized="1" />
  <metadata
     id="metadata4649">
    <rdf:RDF>
      <cc:Work
         rdf:about="">
        <dc:format>image/svg+xml</dc:format>
        <dc:type
           rdf:resource="http://purl.org/dc/dcmitype/StillImage" />
        <dc:title></dc:title>
      </cc:Work>
    </rdf:RDF>
  </metadata>
  <g
     transform="translate(-9.664231,-9.5254428)"
     inkscape:label="Layer 1"
     inkscape:groupmode="layer"
     id="layer1">
    <path
       id="path830"
       d="M 9.664231,48.989257 H 90.182016"
       style="fill:none;stroke:#000000;stroke-width:0.264583px;stroke-linecap:butt;stroke-linejoin:miter;stroke-opacity:1" />
    <path
       id="path832"
       d="M 50.187412,9.5254428 V 87.394442"
       style="fill:none;stroke:#000000;stroke-width:0.264583px;stroke-linecap:butt;stroke-linejoin:miter;stroke-opacity:1" />
    <path
       id="path838"
       d="m 29.000074,82.00533 c 1.632074,-6.327986 1.369237,-12.936619 2.648789,-19.334368 0.229687,-1.148437 0.86538,-2.279764 1.059365,-3.443126 0.218432,-1.309982 0.381114,-2.640195 0.529315,-3.973179 -0.17131,-0.790448 0.427016,-1.398053 0.530053,-2.118736 0.04998,-0.349568 -0.05808,-0.711052 0,-1.059365 0.181533,-1.088697 1.642827,-4.346641 2.118733,-5.297572 0.143695,-0.287126 0.695502,-0.926365 0.795078,-1.324393 0.169532,-0.677654 0.141549,-1.472819 0.529315,-2.118736 0.128608,-0.214228 0.401444,-0.315823 0.530053,-0.530053 0.528275,-0.879967 -0.0016,-0.61644 0.529315,-1.324393 1.551593,-2.069269 -0.470139,1.208545 0.795078,-1.323655 0.09337,-0.18687 2.050539,-1.687602 2.383761,-1.854443 0.284445,-0.142423 0.753025,0.102208 1.059365,0 0.187177,-0.06245 0.342138,-0.202579 0.529315,-0.265028 0.167603,-0.05592 0.405119,-0.124934 0.530053,0 0.124933,0.124933 -0.09798,0.383021 0,0.530053 0.138364,0.207645 0.390927,0.321686 0.529314,0.529315 1.03255,1.549183 1.332768,3.4515 2.648787,4.767519 0.377523,0.377523 0.205044,0.572309 0.530053,1.059368 0.376774,0.564636 0.947986,1.02481 1.324393,1.589418 0.08834,0.176683 0.176683,0.353369 0.265025,0.530053 0,0.08834 -0.03946,0.185989 0,0.265025 0.19736,0.395272 0.591984,0.655219 0.79434,1.059368 0.1134,0.226486 0.151979,0.567616 0.265028,0.79434 0.337224,0.676338 1.246304,1.168 1.58868,1.853708 0.632753,1.267272 1.567582,2.772624 2.913814,3.443864 0.29487,0.147026 0.235508,0.381839 0.53005,0.529315 0.326816,0.163637 0.732605,0.366442 1.059368,0.530053 0.705752,0.353369 -0.177422,0.176929 0.529315,0.529315 0.158117,0.07884 0.405116,-0.124937 0.530053,0 0.06247,0.06247 -0.06247,0.202559 0,0.265025 0.06247,0.06247 0.181223,-0.02796 0.265025,0 0.187177,0.06245 0.342138,0.202578 0.529315,0.265028 0.300765,0.100348 0.737682,0 1.059365,0 0.295693,0 0.78119,0.09281 1.059368,0 0.969301,-0.323403 2.034193,-2.039163 2.38376,-2.913814 0.21544,-0.539052 0.151443,-1.286113 0.265026,-1.853708 0.03876,-0.193699 0.226266,-0.336354 0.265027,-0.530053 0.109525,-0.547325 -0.178167,-1.319702 0,-1.853705 0.03954,-0.118512 0.225518,-0.146505 0.265026,-0.265028 0.05587,-0.167616 -0.05592,-0.36245 0,-0.530053 0.03949,-0.118346 0.225541,-0.145939 0.265025,-0.264287 0.160255,-0.480319 0.163602,-1.086273 0.264289,-1.589418 0.231387,-1.156285 0.364498,-0.562565 0.795079,-1.853708 0.111791,-0.335219 -0.111559,-0.72481 0,-1.060106 0.03933,-0.118216 0.224956,-0.146074 0.264287,-0.264287 5.29e-4,-0.0016 -5.29e-4,-1.057386 0,-1.059368 0.04794,-0.191633 0.232537,-0.335203 0.265028,-0.530053 0.228065,-1.367764 -0.271905,-2.878704 0,-4.237466 0.03876,-0.193699 0.265025,-0.332515 0.265025,-0.530053 0,-0.27913 -0.265025,-0.515213 -0.265025,-0.79434 0,-0.197541 0.226263,-0.336354 0.265025,-0.530053 0.169968,-0.84936 0.122377,-1.793285 0.265028,-2.648786 0.04591,-0.275328 0.176683,-0.529561 0.265025,-0.79434 0.08809,-0.353124 0.212918,-0.699066 0.264287,-1.059368 0.1305,-0.915318 0.308004,-1.761204 0.530053,-2.648786 0.166044,-0.663715 0.692282,-1.13987 0.79434,-1.853708 0.04998,-0.349568 -0.0857,-0.716802 0,-1.059367 0.191688,-0.766212 0.842587,-1.359978 1.059368,-2.119472 0.07267,-0.254611 -0.05198,-0.534713 0,-0.79434 0.136556,-0.682017 0.860742,-1.256172 1.059367,-1.853708 0.380011,-1.143215 -0.503496,0.09234 0.265026,-1.059366 0.06935,-0.103923 0.225517,-0.146503 0.265027,-0.265027 0.267002,-0.801009 -0.13313,-0.262193 0,-0.794341 0.08834,-0.265026 0.176684,-0.530052 0.265026,-0.795078 0.08834,-0.08834 0.225485,-0.146514 0.265025,-0.265026 0.336711,-1.009192 -0.588235,-0.04428 0.264289,-1.323655 0.04899,-0.07352 0.216022,0.07351 0.265026,0 1.150911,-1.726366 -0.0056,-0.248394 0.265027,-1.059367 0.312428,-0.93642 1.059366,-1.505707 1.059366,-2.648786"
       style="fill:none;stroke:#000000;stroke-width:0.264583px;stroke-linecap:butt;stroke-linejoin:miter;stroke-opacity:1" />
    <path
       id="path842"
       d="m 49.658097,56.578311 h 9.535041 v -7.680594"
       style="fill:none;stroke:#000000;stroke-width:0.264583;stroke-linecap:butt;stroke-linejoin:miter;stroke-miterlimit:4;stroke-dasharray:0.264583, 0.264583;stroke-dashoffset:0;stroke-opacity:1" />
    <path
       id="path844"
       d="M 42.24253,48.897717 V 38.038283 h 7.680595"
       style="fill:none;stroke:#000000;stroke-width:0.265;stroke-linecap:butt;stroke-linejoin:miter;stroke-miterlimit:4;stroke-dasharray:0.265, 0.265;stroke-dashoffset:0;stroke-opacity:1" />
    <text
       id="text848"
       y="38.038284"
       x="49.923126"
       style="font-size:2.82223px;line-height:1.25;font-family:sans-serif;-inkscape-font-specification:'sans-serif, Normal';letter-spacing:0px;word-spacing:0px;stroke-width:0.264583"
       xml:space="preserve"><tspan
         style="stroke-width:0.264583"
         y="38.038284"
         x="49.923126"
         id="tspan846"
         sodipodi:role="line"></tspan></text>
    <text
       id="text852"
       y="38.79845"
       x="51.849503"
       style="font-size:2.82223px;line-height:1.25;font-family:sans-serif;-inkscape-font-specification:'sans-serif, Normal';letter-spacing:0px;word-spacing:0px;stroke-width:0.264583"
       xml:space="preserve"><tspan
         style="stroke-width:0.264583"
         y="38.79845"
         x="51.849503"
         id="tspan850"
         sodipodi:role="line">2</tspan></text>
    <text
       id="text856"
       y="50.860687"
       x="42.204311"
       style="font-size:2.82223px;line-height:1.25;font-family:sans-serif;-inkscape-font-specification:'sans-serif, Normal';letter-spacing:0px;word-spacing:0px;stroke-width:0.264583"
       xml:space="preserve"><tspan
         style="stroke-width:0.264583"
         y="50.860687"
         x="42.204311"
         id="tspan854"
         sodipodi:role="line">-2</tspan></text>
    <text
       id="text860"
       y="47.770512"
       x="59.340881"
       style="font-size:2.82223px;line-height:1.25;font-family:sans-serif;-inkscape-font-specification:'sans-serif, Normal';letter-spacing:0px;word-spacing:0px;stroke-width:0.264583"
       xml:space="preserve"><tspan
         style="stroke-width:0.264583"
         y="47.770512"
         x="59.340881"
         id="tspan858"
         sodipodi:role="line">2</tspan></text>
    <text
       id="text864"
       y="56.886909"
       x="47.542004"
       style="font-size:2.82223px;line-height:1.25;font-family:sans-serif;-inkscape-font-specification:'sans-serif, Normal';letter-spacing:0px;word-spacing:0px;stroke-width:0.264583"
       xml:space="preserve"><tspan
         style="stroke-width:0.264583"
         y="56.886909"
         x="47.542004"
         id="tspan862"
         sodipodi:role="line">-2</tspan><tspan
         id="tspan866"
         style="stroke-width:0.264583"
         y="60.414696"
         x="47.542004"
         sodipodi:role="line" /></text>
  </g>
</svg>
